<svg width="39" height="32" viewBox="0 0 39 32" fill="none" xmlns="http://www.w3.org/2000/svg">
<path d="M20.235 11.1825H10.8704L13.4679 8.58496C13.7676 8.28542 13.936 7.87909 13.9361 7.45537C13.9362 7.03165 13.768 6.62525 13.4685 6.32556C13.1689 6.02588 12.7626 5.85746 12.3389 5.85736C11.9152 5.85726 11.5088 6.02549 11.2091 6.32503L7.38999 10.1441C6.69216 10.8439 6.30029 11.7918 6.30029 12.78C6.30029 13.7682 6.69216 14.7161 7.38999 15.4159L11.2091 19.235C11.5088 19.5345 11.9152 19.7027 12.3389 19.7026C12.7626 19.7025 13.1689 19.5341 13.4685 19.2344C13.768 18.9347 13.9362 18.5283 13.9361 18.1046C13.936 17.6809 13.7676 17.2746 13.4679 16.975L10.8704 14.3775H20.235C20.6586 14.3775 21.065 14.2092 21.3646 13.9096C21.6641 13.61 21.8325 13.2037 21.8325 12.78C21.8325 12.3563 21.6641 11.95 21.3646 11.6504C21.065 11.3508 20.6586 11.1825 20.235 11.1825Z" fill="#33B786"/>
<path d="M31.17 16.1441L27.3509 12.325C27.0512 12.0255 26.6448 11.8573 26.2211 11.8574C25.7974 11.8575 25.3911 12.0259 25.0915 12.3256C24.792 12.6252 24.6237 13.0317 24.6238 13.4554C24.6239 13.8791 24.7924 14.2854 25.092 14.585L27.6896 17.1825H18.325C17.9014 17.1825 17.495 17.3508 17.1954 17.6504C16.8958 17.95 16.7275 18.3563 16.7275 18.78C16.7275 19.2037 16.8958 19.61 17.1954 19.9096C17.495 20.2092 17.9014 20.3775 18.325 20.3775H27.6896L25.092 22.975C24.7924 23.2746 24.6239 23.6809 24.6238 24.1046C24.6237 24.5283 24.792 24.9347 25.0915 25.2344C25.3911 25.5341 25.7974 25.7025 26.2211 25.7026C26.6448 25.7027 27.0512 25.5345 27.3509 25.235L31.17 21.4159C31.8678 20.7161 32.2597 19.7682 32.2597 18.78C32.2597 17.7918 31.8678 16.8439 31.17 16.1441Z" fill="#33B786"/>
</svg>
