<svg width="32" height="32" viewBox="0 0 32 32" fill="none" xmlns="http://www.w3.org/2000/svg">
<g clip-path="url(#clip0_859_4252)">
<path d="M25.3333 3.99998H6.66667C4.89921 4.0021 3.20474 4.70516 1.95496 5.95494C0.705176 7.20473 0.00211714 8.89919 0 10.6667H32C31.9979 8.89919 31.2948 7.20473 30.045 5.95494C28.7953 4.70516 27.1008 4.0021 25.3333 3.99998Z" fill="#33B786"/>
<path d="M0 21.3331C0.00211714 23.1006 0.705176 24.795 1.95496 26.0448C3.20474 27.2946 4.89921 27.9976 6.66667 27.9998H25.3333C27.1008 27.9976 28.7953 27.2946 30.045 26.0448C31.2948 24.795 31.9979 23.1006 32 21.3331V13.3331H0V21.3331ZM9.33333 20.6664C9.33333 21.062 9.21604 21.4487 8.99627 21.7776C8.77651 22.1065 8.46415 22.3628 8.0987 22.5142C7.73325 22.6656 7.33111 22.7052 6.94315 22.628C6.55519 22.5508 6.19882 22.3604 5.91912 22.0806C5.63941 21.8009 5.44893 21.4446 5.37176 21.0566C5.29459 20.6687 5.3342 20.2665 5.48557 19.9011C5.63695 19.5356 5.89329 19.2233 6.22219 19.0035C6.55109 18.7837 6.93777 18.6664 7.33333 18.6664C7.86377 18.6664 8.37247 18.8772 8.74755 19.2522C9.12262 19.6273 9.33333 20.136 9.33333 20.6664Z" fill="#33B786"/>
</g>
<defs>
<clipPath id="clip0_859_4252">
<rect width="32" height="32" fill="white"/>
</clipPath>
</defs>
</svg>
