<svg width="32" height="32" viewBox="0 0 32 32" fill="none" xmlns="http://www.w3.org/2000/svg">
<g clip-path="url(#clip0_832_4501)">
<path d="M9.33333 0H5.33333C2.38781 0 0 2.38781 0 5.33333V9.33333C0 12.2789 2.38781 14.6667 5.33333 14.6667H9.33333C12.2789 14.6667 14.6667 12.2789 14.6667 9.33333V5.33333C14.6667 2.38781 12.2789 0 9.33333 0Z" fill="#33B786"/>
<path d="M26.6666 0H22.6666C19.7211 0 17.3333 2.38782 17.3333 5.33334V9.33334C17.3333 12.2789 19.7211 14.6667 22.6666 14.6667H26.6666C29.6121 14.6667 31.9999 12.2789 31.9999 9.33334V5.33334C31.9999 2.38782 29.6121 0 26.6666 0Z" fill="#33B786"/>
<path d="M9.33333 17.3333H5.33333C2.38781 17.3333 0 19.7212 0 22.6667V26.6667C0 29.6122 2.38781 32 5.33333 32H9.33333C12.2789 32 14.6667 29.6122 14.6667 26.6667V22.6667C14.6667 19.7212 12.2789 17.3333 9.33333 17.3333Z" fill="#33B786"/>
<path d="M26.6666 17.3333H22.6666C19.7211 17.3333 17.3333 19.7212 17.3333 22.6667V26.6667C17.3333 29.6122 19.7211 32 22.6666 32H26.6666C29.6121 32 31.9999 29.6122 31.9999 26.6667V22.6667C31.9999 19.7212 29.6121 17.3333 26.6666 17.3333Z" fill="#33B786"/>
</g>
<defs>
<clipPath id="clip0_832_4501">
<rect width="32" height="32" fill="white"/>
</clipPath>
</defs>
</svg>
