<svg width="39" height="32" viewBox="0 0 39 32" fill="none" xmlns="http://www.w3.org/2000/svg">
<path d="M20.2352 11.715H9.58514L13.089 8.21116C13.1888 8.11215 13.2681 7.99436 13.3221 7.86458C13.3762 7.7348 13.404 7.5956 13.404 7.45501C13.404 7.31441 13.3762 7.17521 13.3221 7.04543C13.2681 6.91565 13.1888 6.79786 13.089 6.69885C12.8895 6.5005 12.6195 6.38916 12.3382 6.38916C12.0568 6.38916 11.7869 6.5005 11.5873 6.69885L7.01849 11.2784C6.61849 11.676 6.39251 12.216 6.39014 12.78C6.39532 13.3403 6.62108 13.876 7.01849 14.271L11.5873 18.8505C11.6866 18.9491 11.8044 19.0272 11.9339 19.0803C12.0633 19.1334 12.202 19.1605 12.3419 19.16C12.4819 19.1595 12.6203 19.1314 12.7494 19.0774C12.8785 19.0234 12.9957 18.9445 13.0943 18.8452C13.1929 18.7459 13.271 18.6281 13.3241 18.4987C13.3772 18.3692 13.4043 18.2305 13.4038 18.0906C13.4033 17.9507 13.3752 17.8122 13.3212 17.6831C13.2672 17.554 13.1883 17.4368 13.089 17.3382L9.58514 13.845H20.2352C20.5176 13.845 20.7885 13.7328 20.9882 13.5331C21.188 13.3334 21.3002 13.0625 21.3002 12.78C21.3002 12.4976 21.188 12.2267 20.9882 12.0269C20.7885 11.8272 20.5176 11.715 20.2352 11.715Z" fill="#555555"/>
<path d="M32.17 18.78C32.1649 18.2197 31.9391 17.684 31.5417 17.289L26.9728 12.7095C26.7733 12.5112 26.5034 12.3998 26.222 12.3998C25.9406 12.3998 25.6707 12.5112 25.4712 12.7095C25.3714 12.8085 25.2921 12.9263 25.2381 13.0561C25.184 13.1859 25.1562 13.3251 25.1562 13.4657C25.1562 13.6063 25.184 13.7455 25.2381 13.8752C25.2921 14.005 25.3714 14.1228 25.4712 14.2218L28.975 17.715H18.325C18.0426 17.715 17.7717 17.8272 17.5719 18.027C17.3722 18.2267 17.26 18.4976 17.26 18.78C17.26 19.0625 17.3722 19.3334 17.5719 19.5331C17.7717 19.7328 18.0426 19.845 18.325 19.845H28.975L25.4712 23.3489C25.2706 23.548 25.1574 23.8187 25.1564 24.1013C25.1554 24.3839 25.2667 24.6553 25.4659 24.8559C25.665 25.0564 25.9356 25.1696 26.2182 25.1706C26.5009 25.1716 26.7723 25.0603 26.9728 24.8612L31.5417 20.2817C31.9417 19.8841 32.1677 19.344 32.17 18.78Z" fill="#555555"/>
</svg>
