<svg width="32" height="32" viewBox="0 0 32 32" fill="none" xmlns="http://www.w3.org/2000/svg">
<g clip-path="url(#clip0_859_4242)">
<path d="M9.33333 0H5.33333C3.91885 0 2.56229 0.561903 1.5621 1.5621C0.561903 2.56229 0 3.91885 0 5.33333L0 9.33333C0 10.7478 0.561903 12.1044 1.5621 13.1046C2.56229 14.1048 3.91885 14.6667 5.33333 14.6667H9.33333C10.7478 14.6667 12.1044 14.1048 13.1046 13.1046C14.1048 12.1044 14.6667 10.7478 14.6667 9.33333V5.33333C14.6667 3.91885 14.1048 2.56229 13.1046 1.5621C12.1044 0.561903 10.7478 0 9.33333 0V0ZM12 9.33333C12 10.0406 11.719 10.7189 11.219 11.219C10.7189 11.719 10.0406 12 9.33333 12H5.33333C4.62609 12 3.94781 11.719 3.44772 11.219C2.94762 10.7189 2.66667 10.0406 2.66667 9.33333V5.33333C2.66667 4.62609 2.94762 3.94781 3.44772 3.44772C3.94781 2.94762 4.62609 2.66667 5.33333 2.66667H9.33333C10.0406 2.66667 10.7189 2.94762 11.219 3.44772C11.719 3.94781 12 4.62609 12 5.33333V9.33333Z" fill="#555555"/>
<path d="M26.6663 0H22.6663C21.2518 0 19.8953 0.561904 18.8951 1.5621C17.8949 2.56229 17.333 3.91885 17.333 5.33334V9.33334C17.333 10.7478 17.8949 12.1044 18.8951 13.1046C19.8953 14.1048 21.2518 14.6667 22.6663 14.6667H26.6663C28.0808 14.6667 29.4374 14.1048 30.4376 13.1046C31.4378 12.1044 31.9997 10.7478 31.9997 9.33334V5.33334C31.9997 3.91885 31.4378 2.56229 30.4376 1.5621C29.4374 0.561904 28.0808 0 26.6663 0V0ZM29.333 9.33334C29.333 10.0406 29.052 10.7189 28.5519 11.219C28.0518 11.7191 27.3736 12 26.6663 12H22.6663C21.9591 12 21.2808 11.7191 20.7807 11.219C20.2806 10.7189 19.9997 10.0406 19.9997 9.33334V5.33334C19.9997 4.62609 20.2806 3.94782 20.7807 3.44772C21.2808 2.94762 21.9591 2.66667 22.6663 2.66667H26.6663C27.3736 2.66667 28.0518 2.94762 28.5519 3.44772C29.052 3.94782 29.333 4.62609 29.333 5.33334V9.33334Z" fill="#555555"/>
<path d="M9.33333 17.3333H5.33333C3.91885 17.3333 2.56229 17.8952 1.5621 18.8954C0.561903 19.8956 0 21.2522 0 22.6667L0 26.6667C0 28.0812 0.561903 29.4377 1.5621 30.4379C2.56229 31.4381 3.91885 32 5.33333 32H9.33333C10.7478 32 12.1044 31.4381 13.1046 30.4379C14.1048 29.4377 14.6667 28.0812 14.6667 26.6667V22.6667C14.6667 21.2522 14.1048 19.8956 13.1046 18.8954C12.1044 17.8952 10.7478 17.3333 9.33333 17.3333ZM12 26.6667C12 27.3739 11.719 28.0522 11.219 28.5523C10.7189 29.0524 10.0406 29.3334 9.33333 29.3334H5.33333C4.62609 29.3334 3.94781 29.0524 3.44772 28.5523C2.94762 28.0522 2.66667 27.3739 2.66667 26.6667V22.6667C2.66667 21.9594 2.94762 21.2812 3.44772 20.7811C3.94781 20.281 4.62609 20 5.33333 20H9.33333C10.0406 20 10.7189 20.281 11.219 20.7811C11.719 21.2812 12 21.9594 12 22.6667V26.6667Z" fill="#555555"/>
<path d="M26.6663 17.3333H22.6663C21.2518 17.3333 19.8953 17.8952 18.8951 18.8954C17.8949 19.8956 17.333 21.2522 17.333 22.6667V26.6667C17.333 28.0812 17.8949 29.4377 18.8951 30.4379C19.8953 31.4381 21.2518 32 22.6663 32H26.6663C28.0808 32 29.4374 31.4381 30.4376 30.4379C31.4378 29.4377 31.9997 28.0812 31.9997 26.6667V22.6667C31.9997 21.2522 31.4378 19.8956 30.4376 18.8954C29.4374 17.8952 28.0808 17.3333 26.6663 17.3333ZM29.333 26.6667C29.333 27.3739 29.052 28.0522 28.5519 28.5523C28.0518 29.0524 27.3736 29.3334 26.6663 29.3334H22.6663C21.9591 29.3334 21.2808 29.0524 20.7807 28.5523C20.2806 28.0522 19.9997 27.3739 19.9997 26.6667V22.6667C19.9997 21.9594 20.2806 21.2812 20.7807 20.7811C21.2808 20.281 21.9591 20 22.6663 20H26.6663C27.3736 20 28.0518 20.281 28.5519 20.7811C29.052 21.2812 29.333 21.9594 29.333 22.6667V26.6667Z" fill="#555555"/>
</g>
<defs>
<clipPath id="clip0_859_4242">
<rect width="32" height="32" fill="white"/>
</clipPath>
</defs>
</svg>
