<svg width="16" height="16" viewBox="0 0 16 16" fill="none" xmlns="http://www.w3.org/2000/svg">
<g clip-path="url(#clip0_879_3221)">
<path d="M15.514 6.2792C14.9122 5.29369 14.153 4.41337 13.2667 3.6732L15.1334 1.80654C15.2548 1.6808 15.322 1.5124 15.3205 1.3376C15.319 1.1628 15.2489 0.995595 15.1252 0.871989C15.0016 0.748384 14.8344 0.678271 14.6596 0.676752C14.4848 0.675234 14.3164 0.74243 14.1907 0.863869L12.1607 2.89654C10.9023 2.14908 9.46365 1.75951 8.00003 1.76987C3.8727 1.76987 1.5207 4.5952 0.486034 6.2792C0.166386 6.79621 -0.00292969 7.39203 -0.00292969 7.99987C-0.00292969 8.60771 0.166386 9.20353 0.486034 9.72054C1.08787 10.7061 1.84703 11.5864 2.73337 12.3265L0.866701 14.1932C0.803027 14.2547 0.752239 14.3283 0.7173 14.4096C0.682361 14.4909 0.66397 14.5784 0.663201 14.6669C0.662431 14.7555 0.679299 14.8432 0.71282 14.9252C0.74634 15.0071 0.795842 15.0815 0.858438 15.1441C0.921033 15.2067 0.995467 15.2562 1.0774 15.2898C1.15933 15.3233 1.24712 15.3401 1.33564 15.3394C1.42415 15.3386 1.51163 15.3202 1.59297 15.2853C1.67431 15.2503 1.74787 15.1995 1.80937 15.1359L3.84403 13.1012C5.10088 13.8485 6.53782 14.2388 8.00003 14.2299C12.1274 14.2299 14.4794 11.4045 15.514 9.72054C15.8337 9.20353 16.003 8.60771 16.003 7.99987C16.003 7.39203 15.8337 6.79621 15.514 6.2792ZM1.62203 9.02254C1.43212 8.71523 1.33153 8.36112 1.33153 7.99987C1.33153 7.63862 1.43212 7.28451 1.62203 6.9772C2.51137 5.5332 4.52137 3.1032 8.00003 3.1032C9.10688 3.097 10.1982 3.36376 11.1774 3.87987L9.83537 5.22187C9.19532 4.79694 8.42797 4.60653 7.66352 4.68297C6.89907 4.7594 6.18461 5.09796 5.64137 5.6412C5.09813 6.18445 4.75956 6.89891 4.68313 7.66336C4.6067 8.42781 4.7971 9.19516 5.22203 9.8352L3.68203 11.3752C2.86544 10.715 2.16859 9.91917 1.62203 9.02254ZM10 7.99987C10 8.5303 9.78932 9.03901 9.41425 9.41408C9.03918 9.78916 8.53047 9.99987 8.00003 9.99987C7.70304 9.99872 7.41017 9.93034 7.14337 9.79987L9.80003 7.1432C9.93051 7.41 9.99889 7.70288 10 7.99987ZM6.00003 7.99987C6.00003 7.46944 6.21075 6.96073 6.58582 6.58565C6.96089 6.21058 7.4696 5.99987 8.00003 5.99987C8.29703 6.00102 8.5899 6.06939 8.8567 6.19987L6.20003 8.85653C6.06956 8.58974 6.00118 8.29686 6.00003 7.99987ZM14.378 9.02254C13.4887 10.4665 11.4787 12.8965 8.00003 12.8965C6.89319 12.9027 5.80188 12.636 4.8227 12.1199L6.1647 10.7779C6.80475 11.2028 7.5721 11.3932 8.33655 11.3168C9.101 11.2403 9.81546 10.9018 10.3587 10.3585C10.9019 9.81529 11.2405 9.10083 11.3169 8.33638C11.3934 7.57193 11.203 6.80458 10.778 6.16454L12.318 4.62454C13.1346 5.28472 13.8315 6.08057 14.378 6.9772C14.5679 7.28451 14.6685 7.63862 14.6685 7.99987C14.6685 8.36112 14.5679 8.71523 14.378 9.02254Z" fill="#555555"/>
</g>
<defs>
<clipPath id="clip0_879_3221">
<rect width="16" height="16" fill="white"/>
</clipPath>
</defs>
</svg>
