<svg width="46" height="46" viewBox="0 0 46 46" fill="none" xmlns="http://www.w3.org/2000/svg">
<rect width="46" height="46" rx="8" fill="#F0F0F0"/>
<g clip-path="url(#clip0_879_3267)">
<path d="M30.514 21.2792C29.48 19.5952 27.128 16.7699 23 16.7699C18.872 16.7699 16.52 19.5952 15.486 21.2792C15.1664 21.7962 14.9971 22.3921 14.9971 22.9999C14.9971 23.6077 15.1664 24.2036 15.486 24.7206C16.52 26.4046 18.872 29.2299 23 29.2299C27.128 29.2299 29.48 26.4046 30.514 24.7206C30.8337 24.2036 31.003 23.6077 31.003 22.9999C31.003 22.3921 30.8337 21.7962 30.514 21.2792ZM29.3774 24.0226C28.4894 25.4666 26.4794 27.8966 23 27.8966C19.5207 27.8966 17.5107 25.4666 16.6227 24.0226C16.4328 23.7153 16.3322 23.3611 16.3322 22.9999C16.3322 22.6386 16.4328 22.2845 16.6227 21.9772C17.5107 20.5332 19.5207 18.1032 23 18.1032C26.4794 18.1032 28.4894 20.5306 29.3774 21.9772C29.5673 22.2845 29.6679 22.6386 29.6679 22.9999C29.6679 23.3611 29.5673 23.7153 29.3774 24.0226Z" fill="#555555"/>
<path d="M22.9998 19.6666C22.3406 19.6666 21.6961 19.8621 21.1479 20.2283C20.5998 20.5946 20.1725 21.1152 19.9202 21.7243C19.6679 22.3334 19.6019 23.0036 19.7306 23.6502C19.8592 24.2968 20.1766 24.8907 20.6428 25.3569C21.109 25.8231 21.7029 26.1406 22.3495 26.2692C22.9961 26.3978 23.6664 26.3318 24.2755 26.0795C24.8845 25.8272 25.4051 25.4 25.7714 24.8518C26.1377 24.3036 26.3332 23.6592 26.3332 22.9999C26.3321 22.1162 25.9806 21.2689 25.3557 20.644C24.7308 20.0192 23.8836 19.6676 22.9998 19.6666ZM22.9998 24.9999C22.6043 24.9999 22.2176 24.8826 21.8887 24.6628C21.5598 24.4431 21.3035 24.1307 21.1521 23.7653C21.0007 23.3998 20.9611 22.9977 21.0383 22.6097C21.1154 22.2218 21.3059 21.8654 21.5856 21.5857C21.8653 21.306 22.2217 21.1155 22.6097 21.0383C22.9976 20.9612 23.3998 21.0008 23.7652 21.1521C24.1307 21.3035 24.443 21.5599 24.6628 21.8888C24.8825 22.2177 24.9998 22.6043 24.9998 22.9999C24.9998 23.5303 24.7891 24.039 24.4141 24.4141C24.039 24.7892 23.5303 24.9999 22.9998 24.9999Z" fill="#555555"/>
</g>
<defs>
<clipPath id="clip0_879_3267">
<rect width="16" height="16" fill="white" transform="translate(15 15)"/>
</clipPath>
</defs>
</svg>
