<svg width="290" height="290" viewBox="0 0 290 290" fill="none" xmlns="http://www.w3.org/2000/svg">
<path d="M24.0455 225V131.909H87.5909V150.182H46.5455V169.273H83.5455V187.591H46.5455V225H24.0455ZM155.239 131.909H177.693V191.955C177.693 198.894 176.042 204.939 172.739 210.091C169.436 215.212 164.83 219.182 158.92 222C153.011 224.788 146.148 226.182 138.33 226.182C130.42 226.182 123.511 224.788 117.602 222C111.693 219.182 107.102 215.212 103.83 210.091C100.557 204.939 98.9205 198.894 98.9205 191.955V131.909H121.42V190C121.42 193.212 122.117 196.076 123.511 198.591C124.936 201.106 126.92 203.076 129.466 204.5C132.011 205.924 134.966 206.636 138.33 206.636C141.693 206.636 144.633 205.924 147.148 204.5C149.693 203.076 151.678 201.106 153.102 198.591C154.527 196.076 155.239 193.212 155.239 190V131.909ZM191.795 225V131.909H230.614C237.583 131.909 243.417 132.894 248.114 134.864C252.841 136.833 256.386 139.591 258.75 143.136C261.144 146.682 262.341 150.788 262.341 155.455C262.341 159 261.598 162.167 260.114 164.955C258.629 167.712 256.583 170 253.977 171.818C251.371 173.636 248.356 174.909 244.932 175.636V176.545C248.689 176.727 252.159 177.742 255.341 179.591C258.553 181.439 261.129 184.015 263.068 187.318C265.008 190.591 265.977 194.47 265.977 198.955C265.977 203.955 264.705 208.424 262.159 212.364C259.614 216.273 255.932 219.364 251.114 221.636C246.295 223.879 240.447 225 233.568 225H191.795ZM214.295 206.864H228.205C233.083 206.864 236.674 205.939 238.977 204.091C241.311 202.242 242.477 199.667 242.477 196.364C242.477 193.97 241.917 191.909 240.795 190.182C239.674 188.424 238.083 187.076 236.023 186.136C233.962 185.167 231.492 184.682 228.614 184.682H214.295V206.864ZM214.295 170.182H226.75C229.205 170.182 231.386 169.773 233.295 168.955C235.205 168.136 236.689 166.955 237.75 165.409C238.841 163.864 239.386 162 239.386 159.818C239.386 156.697 238.28 154.242 236.068 152.455C233.856 150.667 230.871 149.773 227.114 149.773H214.295V170.182Z" fill="white"/>
<path d="M35.8367 93.75L145 18.2555L254.163 93.75H35.8367Z" stroke="#33B786" stroke-width="7"/>
<rect x="18.5" y="259.5" width="253" height="13" stroke="#33B786" stroke-width="7"/>
<rect x="27.5" y="108.5" width="235" height="13" stroke="#33B786" stroke-width="7"/>
<rect x="27.5" y="234.5" width="235" height="13" stroke="#33B786" stroke-width="7"/>
<rect x="3.5" y="3.5" width="283" height="283" rx="14.5" stroke="#33B786" stroke-width="7"/>
</svg>
