<svg width="278" height="266" viewBox="0 0 278 266" fill="none" xmlns="http://www.w3.org/2000/svg">
<path d="M18.0455 211V117.909H81.5909V136.182H40.5455V155.273H77.5455V173.591H40.5455V211H18.0455ZM149.239 117.909H171.693V177.955C171.693 184.894 170.042 190.939 166.739 196.091C163.436 201.212 158.83 205.182 152.92 208C147.011 210.788 140.148 212.182 132.33 212.182C124.42 212.182 117.511 210.788 111.602 208C105.693 205.182 101.102 201.212 97.8295 196.091C94.5568 190.939 92.9205 184.894 92.9205 177.955V117.909H115.42V176C115.42 179.212 116.117 182.076 117.511 184.591C118.936 187.106 120.92 189.076 123.466 190.5C126.011 191.924 128.966 192.636 132.33 192.636C135.693 192.636 138.633 191.924 141.148 190.5C143.693 189.076 145.678 187.106 147.102 184.591C148.527 182.076 149.239 179.212 149.239 176V117.909ZM185.795 211V117.909H224.614C231.583 117.909 237.417 118.894 242.114 120.864C246.841 122.833 250.386 125.591 252.75 129.136C255.144 132.682 256.341 136.788 256.341 141.455C256.341 145 255.598 148.167 254.114 150.955C252.629 153.712 250.583 156 247.977 157.818C245.371 159.636 242.356 160.909 238.932 161.636V162.545C242.689 162.727 246.159 163.742 249.341 165.591C252.553 167.439 255.129 170.015 257.068 173.318C259.008 176.591 259.977 180.47 259.977 184.955C259.977 189.955 258.705 194.424 256.159 198.364C253.614 202.273 249.932 205.364 245.114 207.636C240.295 209.879 234.447 211 227.568 211H185.795ZM208.295 192.864H222.205C227.083 192.864 230.674 191.939 232.977 190.091C235.311 188.242 236.477 185.667 236.477 182.364C236.477 179.97 235.917 177.909 234.795 176.182C233.674 174.424 232.083 173.076 230.023 172.136C227.962 171.167 225.492 170.682 222.614 170.682H208.295V192.864ZM208.295 156.182H220.75C223.205 156.182 225.386 155.773 227.295 154.955C229.205 154.136 230.689 152.955 231.75 151.409C232.841 149.864 233.386 148 233.386 145.818C233.386 142.697 232.28 140.242 230.068 138.455C227.856 136.667 224.871 135.773 221.114 135.773H208.295V156.182Z" fill="white"/>
<path d="M20.9859 80.5L139 5.15253L257.014 80.5H20.9859Z" stroke="#33B786" stroke-width="7"/>
<rect x="12.5" y="249.5" width="253" height="13" stroke="#33B786" stroke-width="7"/>
<rect x="21.5" y="94.5" width="235" height="13" stroke="#33B786" stroke-width="7"/>
<rect x="21.5" y="222.5" width="235" height="13" stroke="#33B786" stroke-width="7"/>
</svg>
