<svg width="677" height="155" viewBox="0 0 677 155" fill="none" xmlns="http://www.w3.org/2000/svg">
<rect width="677" height="155" rx="31" fill="#33B786"/>
<path d="M25.0006 31H174.001L170.501 51.7716H21.0006L25.0006 31Z" fill="white"/>
<path d="M25.0006 31H174.001L170.501 51.7716H21.0006L25.0006 31Z" fill="white"/>
<path d="M25.0006 31H174.001L170.501 51.7716H21.0006L25.0006 31Z" fill="white"/>
<path d="M25.0006 31H174.001L170.501 51.7716H21.0006L25.0006 31Z" fill="white"/>
<path d="M25.0006 31H174.001L170.501 51.7716H21.0006L25.0006 31Z" fill="white"/>
<path d="M25.0006 31H174.001L170.501 51.7716H21.0006L25.0006 31Z" fill="white"/>
<path d="M25.0006 31H174.001L170.501 51.7716H21.0006L25.0006 31Z" fill="white"/>
<path d="M25.0006 31H174.001L170.501 51.7716H21.0006L25.0006 31Z" fill="white"/>
<path d="M21.0007 55H170.001L166.501 75.7716H17.0006L21.0007 55Z" fill="white"/>
<path d="M21.0007 55H170.001L166.501 75.7716H17.0006L21.0007 55Z" fill="white"/>
<path d="M21.0007 55H170.001L166.501 75.7716H17.0006L21.0007 55Z" fill="white"/>
<path d="M21.0007 55H170.001L166.501 75.7716H17.0006L21.0007 55Z" fill="white"/>
<path d="M21.0007 55H170.001L166.501 75.7716H17.0006L21.0007 55Z" fill="white"/>
<path d="M21.0007 55H170.001L166.501 75.7716H17.0006L21.0007 55Z" fill="white"/>
<path d="M21.0007 55H170.001L166.501 75.7716H17.0006L21.0007 55Z" fill="white"/>
<path d="M21.0007 55H170.001L166.501 75.7716H17.0006L21.0007 55Z" fill="white"/>
<path d="M17.0008 79H166.001L162.502 99.7716H13.0008L17.0008 79Z" fill="white"/>
<path d="M17.0008 79H166.001L162.502 99.7716H13.0008L17.0008 79Z" fill="white"/>
<path d="M17.0008 79H166.001L162.502 99.7716H13.0008L17.0008 79Z" fill="white"/>
<path d="M17.0008 79H166.001L162.502 99.7716H13.0008L17.0008 79Z" fill="white"/>
<path d="M17.0008 79H166.001L162.502 99.7716H13.0008L17.0008 79Z" fill="white"/>
<path d="M17.0008 79H166.001L162.502 99.7716H13.0008L17.0008 79Z" fill="white"/>
<path d="M17.0008 79H166.001L162.502 99.7716H13.0008L17.0008 79Z" fill="white"/>
<path d="M17.0008 79H166.001L162.502 99.7716H13.0008L17.0008 79Z" fill="white"/>
<path d="M13 103.228H162L158.501 124H9L13 103.228Z" fill="white"/>
<path d="M13 103.228H162L158.501 124H9L13 103.228Z" fill="white"/>
<path d="M13 103.228H162L158.501 124H9L13 103.228Z" fill="white"/>
<path d="M13 103.228H162L158.501 124H9L13 103.228Z" fill="white"/>
<path d="M13 103.228H162L158.501 124H9L13 103.228Z" fill="white"/>
<path d="M13 103.228H162L158.501 124H9L13 103.228Z" fill="white"/>
<path d="M13 103.228H162L158.501 124H9L13 103.228Z" fill="white"/>
<path d="M13 103.228H162L158.501 124H9L13 103.228Z" fill="white"/>
<path d="M174.183 124L189.637 30.9091H255.092L251.637 51.2727H211.455L208.91 67.2727H245.092L241.637 87.6364H205.455L199.455 124H174.183ZM319.478 30.9091H344.751L334.842 90.5455C333.69 97.6364 330.993 103.773 326.751 108.955C322.539 114.106 317.175 118.091 310.66 120.909C304.145 123.697 296.902 125.091 288.933 125.091C280.902 125.091 274.114 123.697 268.569 120.909C263.024 118.091 258.993 114.106 256.478 108.955C253.993 103.773 253.327 97.6364 254.478 90.5455L264.387 30.9091H289.66L280.114 88.3636C279.66 91.2424 279.887 93.803 280.796 96.0455C281.705 98.2879 283.175 100.061 285.205 101.364C287.236 102.636 289.69 103.273 292.569 103.273C295.478 103.273 298.16 102.636 300.614 101.364C303.099 100.061 305.16 98.2879 306.796 96.0455C308.433 93.803 309.478 91.2424 309.933 88.3636L319.478 30.9091ZM341.308 124L356.762 30.9091H397.126C404.217 30.9091 410.02 31.8636 414.535 33.7727C419.08 35.6818 422.293 38.3788 424.171 41.8636C426.08 45.3485 426.641 49.4545 425.853 54.1818C425.247 57.5758 423.944 60.6818 421.944 63.5C419.974 66.2879 417.474 68.6515 414.444 70.5909C411.444 72.5 408.096 73.8182 404.399 74.5455L404.217 75.4545C408.217 75.5758 411.702 76.5758 414.671 78.4545C417.641 80.303 419.823 82.8788 421.217 86.1818C422.611 89.4545 422.944 93.2727 422.217 97.6364C421.368 102.727 419.293 107.258 415.989 111.227C412.686 115.197 408.399 118.318 403.126 120.591C397.853 122.864 391.853 124 385.126 124H341.308ZM370.035 103.818H381.853C386.035 103.818 389.323 103.015 391.717 101.409C394.141 99.803 395.58 97.4545 396.035 94.3636C396.399 92.1818 396.217 90.3333 395.489 88.8182C394.762 87.303 393.535 86.1515 391.808 85.3636C390.08 84.5758 387.914 84.1818 385.308 84.1818H373.126L370.035 103.818ZM375.853 68.5455H386.217C388.399 68.5455 390.399 68.197 392.217 67.5C394.035 66.803 395.535 65.7879 396.717 64.4545C397.899 63.1212 398.641 61.5151 398.944 59.6364C399.399 56.7273 398.702 54.5152 396.853 53C395.035 51.4848 392.58 50.7273 389.489 50.7273H378.762L375.853 68.5455ZM446.444 125.091C442.02 125.091 438.217 124.364 435.035 122.909C431.883 121.424 429.58 119.182 428.126 116.182C426.702 113.152 426.383 109.333 427.171 104.727C427.808 100.909 429.005 97.6515 430.762 94.9545C432.52 92.2576 434.702 90.0455 437.308 88.3182C439.914 86.5909 442.838 85.2727 446.08 84.3636C449.353 83.4242 452.808 82.8182 456.444 82.5455C460.383 82.2424 463.58 81.8636 466.035 81.4091C468.489 80.9545 470.323 80.3333 471.535 79.5455C472.747 78.7576 473.474 77.697 473.717 76.3636V76.1818C473.989 74.3636 473.505 72.9697 472.262 72C471.05 71.0303 469.353 70.5455 467.171 70.5455C464.808 70.5455 462.762 71.0606 461.035 72.0909C459.338 73.1212 458.171 74.7273 457.535 76.9091H434.444C435.414 72.6667 437.399 68.7576 440.399 65.1818C443.429 61.5758 447.444 58.697 452.444 56.5455C457.474 54.3636 463.474 53.2727 470.444 53.2727C475.414 53.2727 479.777 53.8636 483.535 55.0455C487.293 56.197 490.399 57.8182 492.853 59.9091C495.338 61.9697 497.08 64.3939 498.08 67.1818C499.111 69.9394 499.353 72.9394 498.808 76.1818L490.808 124H467.353L468.989 114.182H468.444C466.626 116.788 464.58 118.894 462.308 120.5C460.065 122.106 457.611 123.273 454.944 124C452.308 124.727 449.474 125.091 446.444 125.091ZM457.353 109.273C459.232 109.273 461.08 108.879 462.899 108.091C464.717 107.303 466.277 106.167 467.58 104.682C468.883 103.197 469.717 101.394 470.08 99.2727L470.989 93.4545C470.323 93.7273 469.58 93.9848 468.762 94.2273C467.974 94.4394 467.141 94.6515 466.262 94.8636C465.414 95.0758 464.505 95.2727 463.535 95.4545C462.596 95.6364 461.626 95.8182 460.626 96C458.626 96.303 456.944 96.803 455.58 97.5C454.217 98.1667 453.156 99 452.399 100C451.641 100.97 451.171 102.061 450.989 103.273C450.717 105.182 451.156 106.667 452.308 107.727C453.489 108.758 455.171 109.273 457.353 109.273ZM534.614 84.7273L528.069 124H502.978L514.614 54.1818H538.433L536.251 67.4545H536.978C539.19 63 542.418 59.5303 546.66 57.0455C550.933 54.5303 555.645 53.2727 560.796 53.2727C565.736 53.2727 569.842 54.3939 573.114 56.6364C576.387 58.8788 578.705 61.9697 580.069 65.9091C581.433 69.8485 581.675 74.3636 580.796 79.4545L573.342 124H548.251L554.796 84.7273C555.372 81.2727 554.948 78.5606 553.524 76.5909C552.13 74.6212 549.827 73.6364 546.614 73.6364C544.584 73.6364 542.721 74.0909 541.024 75C539.357 75.8788 537.963 77.1515 536.842 78.8182C535.751 80.4545 535.008 82.4242 534.614 84.7273ZM610.819 107.455L615.91 77.6364H619.183L640.092 54.1818H668.274L633.91 90.7273H626.819L610.819 107.455ZM585.546 124L601.001 30.9091H626.092L610.637 124H585.546ZM628.637 124L617.183 96.3636L636.637 78.5455L657.364 124H628.637Z" fill="white"/>
</svg>
