<svg width="280" height="65" viewBox="0 0 280 65" fill="none" xmlns="http://www.w3.org/2000/svg">
<path d="M6.74725 12.8916H69.5787L68.103 21.6507H5.0605L6.74725 12.8916Z" fill="#33B786"/>
<path d="M6.74725 12.8916H69.5787L68.103 21.6507H5.0605L6.74725 12.8916Z" fill="#33B786"/>
<path d="M6.74725 12.8916H69.5787L68.103 21.6507H5.0605L6.74725 12.8916Z" fill="#33B786"/>
<path d="M6.74725 12.8916H69.5787L68.103 21.6507H5.0605L6.74725 12.8916Z" fill="#33B786"/>
<path d="M6.74725 12.8916H69.5787L68.103 21.6507H5.0605L6.74725 12.8916Z" fill="#33B786"/>
<path d="M6.74725 12.8916H69.5787L68.103 21.6507H5.0605L6.74725 12.8916Z" fill="#33B786"/>
<path d="M6.74725 12.8916H69.5787L68.103 21.6507H5.0605L6.74725 12.8916Z" fill="#33B786"/>
<path d="M6.74725 12.8916H69.5787L68.103 21.6507H5.0605L6.74725 12.8916Z" fill="#33B786"/>
<path d="M5.06052 23.0121H67.8919L66.4163 31.7712H3.37377L5.06052 23.0121Z" fill="#33B786"/>
<path d="M5.06052 23.0121H67.8919L66.4163 31.7712H3.37377L5.06052 23.0121Z" fill="#33B786"/>
<path d="M5.06052 23.0121H67.8919L66.4163 31.7712H3.37377L5.06052 23.0121Z" fill="#33B786"/>
<path d="M5.06052 23.0121H67.8919L66.4163 31.7712H3.37377L5.06052 23.0121Z" fill="#33B786"/>
<path d="M5.06052 23.0121H67.8919L66.4163 31.7712H3.37377L5.06052 23.0121Z" fill="#33B786"/>
<path d="M5.06052 23.0121H67.8919L66.4163 31.7712H3.37377L5.06052 23.0121Z" fill="#33B786"/>
<path d="M5.06052 23.0121H67.8919L66.4163 31.7712H3.37377L5.06052 23.0121Z" fill="#33B786"/>
<path d="M5.06052 23.0121H67.8919L66.4163 31.7712H3.37377L5.06052 23.0121Z" fill="#33B786"/>
<path d="M3.37384 33.1325H66.2052L64.7296 41.8916H1.68709L3.37384 33.1325Z" fill="#33B786"/>
<path d="M3.37384 33.1325H66.2052L64.7296 41.8916H1.68709L3.37384 33.1325Z" fill="#33B786"/>
<path d="M3.37384 33.1325H66.2052L64.7296 41.8916H1.68709L3.37384 33.1325Z" fill="#33B786"/>
<path d="M3.37384 33.1325H66.2052L64.7296 41.8916H1.68709L3.37384 33.1325Z" fill="#33B786"/>
<path d="M3.37384 33.1325H66.2052L64.7296 41.8916H1.68709L3.37384 33.1325Z" fill="#33B786"/>
<path d="M3.37384 33.1325H66.2052L64.7296 41.8916H1.68709L3.37384 33.1325Z" fill="#33B786"/>
<path d="M3.37384 33.1325H66.2052L64.7296 41.8916H1.68709L3.37384 33.1325Z" fill="#33B786"/>
<path d="M3.37384 33.1325H66.2052L64.7296 41.8916H1.68709L3.37384 33.1325Z" fill="#33B786"/>
<path d="M1.68675 43.3493H64.5181L63.0425 52.1084H0L1.68675 43.3493Z" fill="#33B786"/>
<path d="M1.68675 43.3493H64.5181L63.0425 52.1084H0L1.68675 43.3493Z" fill="#33B786"/>
<path d="M1.68675 43.3493H64.5181L63.0425 52.1084H0L1.68675 43.3493Z" fill="#33B786"/>
<path d="M1.68675 43.3493H64.5181L63.0425 52.1084H0L1.68675 43.3493Z" fill="#33B786"/>
<path d="M1.68675 43.3493H64.5181L63.0425 52.1084H0L1.68675 43.3493Z" fill="#33B786"/>
<path d="M1.68675 43.3493H64.5181L63.0425 52.1084H0L1.68675 43.3493Z" fill="#33B786"/>
<path d="M1.68675 43.3493H64.5181L63.0425 52.1084H0L1.68675 43.3493Z" fill="#33B786"/>
<path d="M1.68675 43.3493H64.5181L63.0425 52.1084H0L1.68675 43.3493Z" fill="#33B786"/>
<path d="M69.6553 52L76.1723 12.7448H103.774L102.317 21.3319H85.3727L84.2993 28.0789H99.5567L98.1 36.6659H82.8426L80.3125 52H69.6553ZM130.924 12.7448H141.582L137.403 37.8927C136.918 40.8828 135.78 43.4704 133.991 45.6555C132.215 47.8279 129.953 49.5082 127.206 50.6966C124.459 51.8722 121.405 52.46 118.044 52.46C114.658 52.46 111.795 51.8722 109.457 50.6966C107.118 49.5082 105.419 47.8279 104.358 45.6555C103.31 43.4704 103.029 40.8828 103.515 37.8927L107.693 12.7448H118.351L114.325 36.9726C114.134 38.1866 114.229 39.2663 114.613 40.2119C114.996 41.1575 115.616 41.9051 116.472 42.4545C117.328 42.9912 118.363 43.2596 119.577 43.2596C120.804 43.2596 121.935 42.9912 122.97 42.4545C124.018 41.9051 124.887 41.1575 125.577 40.2119C126.267 39.2663 126.708 38.1866 126.899 36.9726L130.924 12.7448ZM140.13 52L146.647 12.7448H163.667C166.658 12.7448 169.105 13.1473 171.009 13.9524C172.925 14.7574 174.28 15.8947 175.072 17.3642C175.877 18.8337 176.114 20.5652 175.781 22.5586C175.526 23.9898 174.976 25.2996 174.133 26.488C173.302 27.6636 172.248 28.6603 170.97 29.4781C169.705 30.2831 168.293 30.839 166.734 31.1457L166.658 31.529C168.344 31.5801 169.814 32.0018 171.066 32.7941C172.318 33.5736 173.238 34.6597 173.826 36.0526C174.414 37.4326 174.555 39.0427 174.248 40.8828C173.89 43.0296 173.015 44.9399 171.622 46.6139C170.229 48.2879 168.421 49.6041 166.198 50.5624C163.974 51.5208 161.444 52 158.607 52H140.13ZM152.244 43.4896H157.227C158.991 43.4896 160.377 43.151 161.387 42.4737C162.409 41.7965 163.016 40.8061 163.207 39.5027C163.361 38.5827 163.284 37.8032 162.977 37.1643C162.671 36.5254 162.153 36.0398 161.425 35.7076C160.696 35.3753 159.783 35.2092 158.684 35.2092H153.547L152.244 43.4896ZM154.697 28.6156H159.067C159.987 28.6156 160.831 28.4686 161.597 28.1747C162.364 27.8808 162.997 27.4527 163.495 26.8905C163.993 26.3282 164.306 25.651 164.434 24.8587C164.626 23.632 164.332 22.6992 163.552 22.0602C162.786 21.4213 161.751 21.1019 160.447 21.1019H155.924L154.697 28.6156ZM184.464 52.46C182.599 52.46 180.995 52.1533 179.653 51.54C178.324 50.9138 177.353 49.9682 176.74 48.7032C176.139 47.4253 176.005 45.8153 176.337 43.8729C176.606 42.2629 177.11 40.8892 177.851 39.7519C178.593 38.6146 179.513 37.6818 180.612 36.9534C181.711 36.2251 182.944 35.6692 184.311 35.2859C185.691 34.8897 187.148 34.6342 188.681 34.5192C190.342 34.3914 191.69 34.2317 192.726 34.04C193.761 33.8483 194.534 33.5863 195.045 33.2541C195.556 32.9219 195.863 32.4746 195.965 31.9124V31.8357C196.08 31.069 195.875 30.4812 195.351 30.0723C194.84 29.6634 194.125 29.4589 193.205 29.4589C192.208 29.4589 191.345 29.6762 190.617 30.1106C189.901 30.5451 189.41 31.2223 189.141 32.1424H179.404C179.813 30.3534 180.65 28.705 181.915 27.1972C183.193 25.6765 184.886 24.4626 186.994 23.5553C189.116 22.6353 191.646 22.1752 194.585 22.1752C196.68 22.1752 198.521 22.4244 200.105 22.9228C201.69 23.4084 202.999 24.092 204.034 24.9737C205.082 25.8426 205.817 26.8649 206.239 28.0405C206.673 29.2034 206.775 30.4684 206.545 31.8357L203.172 52H193.281L193.971 47.8598H193.741C192.975 48.9587 192.112 49.8468 191.154 50.5241C190.208 51.2014 189.173 51.6933 188.049 52C186.937 52.3067 185.742 52.46 184.464 52.46ZM189.065 45.7897C189.857 45.7897 190.636 45.6236 191.403 45.2913C192.17 44.9591 192.828 44.4799 193.377 43.8538C193.927 43.2276 194.278 42.4673 194.431 41.5728L194.815 39.1194C194.534 39.2344 194.221 39.343 193.876 39.4452C193.543 39.5347 193.192 39.6241 192.821 39.7136C192.464 39.803 192.08 39.8861 191.671 39.9628C191.275 40.0394 190.866 40.1161 190.445 40.1928C189.601 40.3206 188.892 40.5314 188.317 40.8253C187.742 41.1064 187.295 41.4578 186.975 41.8795C186.656 42.2884 186.458 42.7484 186.381 43.2596C186.266 44.0646 186.451 44.6908 186.937 45.138C187.435 45.5725 188.144 45.7897 189.065 45.7897ZM221.645 35.4392L218.884 52H208.304L213.211 22.5586H223.255L222.335 28.1555H222.641C223.574 26.2771 224.935 24.814 226.724 23.7662C228.526 22.7056 230.513 22.1752 232.685 22.1752C234.768 22.1752 236.499 22.648 237.88 23.5936C239.26 24.5392 240.237 25.8426 240.812 27.5038C241.387 29.165 241.489 31.069 241.119 33.2158L237.975 52H227.395L230.155 35.4392C230.398 33.9825 230.219 32.8388 229.618 32.0082C229.031 31.1776 228.059 30.7623 226.705 30.7623C225.849 30.7623 225.063 30.954 224.347 31.3373C223.644 31.7079 223.057 32.2446 222.584 32.9474C222.124 33.6375 221.811 34.4681 221.645 35.4392ZM253.779 45.023L255.926 32.4491H257.306L266.123 22.5586H278.007L263.516 37.9693H260.526L253.779 45.023ZM243.122 52L249.639 12.7448H260.219L253.702 52H243.122ZM261.293 52L256.463 40.3461L264.666 32.8324L273.407 52H261.293Z" fill="white"/>
</svg>
