<svg width="474" height="743" viewBox="0 0 474 743" fill="none" xmlns="http://www.w3.org/2000/svg">
<path d="M111.384 510.024L107.256 339.744H154.728C189.816 339.744 221.808 336.648 250.704 330.456C279.6 324.264 302.648 312.224 319.848 294.336C337.048 276.448 345.648 250.304 345.648 215.904C345.648 182.88 335.672 157.08 315.72 138.504C295.768 119.24 269.28 109.608 236.256 109.608C201.856 109.608 175.024 119.24 155.76 138.504C136.496 157.08 126.864 182.536 126.864 214.872H1.992C1.304 173.592 10.248 136.784 28.824 104.448C47.4 72.112 74.232 46.6559 109.32 28.0799C145.096 9.50397 187.752 0.215987 237.288 0.215987C283.384 0.215987 323.976 8.81598 359.064 26.016C394.84 43.2159 422.704 67.984 442.656 100.32C463.296 131.968 473.616 170.84 473.616 216.936C473.616 264.408 462.952 303.624 441.624 334.584C420.984 365.544 392.432 388.592 355.968 403.728C320.192 418.864 278.568 426.776 231.096 427.464L228 510.024H111.384ZM170.208 742.224C146.128 742.224 126.176 734.656 110.352 719.52C95.216 704.384 87.648 686.152 87.648 664.824C87.648 642.808 95.216 624.232 110.352 609.096C126.176 593.96 146.128 586.392 170.208 586.392C194.288 586.392 213.896 593.96 229.032 609.096C244.168 624.232 251.736 642.808 251.736 664.824C251.736 686.152 244.168 704.384 229.032 719.52C213.896 734.656 194.288 742.224 170.208 742.224Z" fill="#252525" fill-opacity="0.12"/>
</svg>
